<?xml version="1.0" encoding="UTF-8"?>
<svg width="1152px" height="236px" viewBox="0 0 1152 236" version="1.1" xmlns="http://www.w3.org/2000/svg" xmlns:xlink="http://www.w3.org/1999/xlink">
    <title>编组 91</title>
    <defs>
        <linearGradient x1="-35.5555556%" y1="49.3895805%" x2="58.676912%" y2="45.0742363%" id="linearGradient-1">
            <stop stop-color="#008FF7" offset="7.10432%"></stop>
            <stop stop-color="#A090F9" offset="47.8979%"></stop>
            <stop stop-color="#EF6CBC" offset="75.522%"></stop>
            <stop stop-color="#FEA324" offset="100%"></stop>
        </linearGradient>
    </defs>
    <g id="页面-2" stroke="none" stroke-width="1" fill="none" fill-rule="evenodd">
        <g id="编组-91" transform="translate(2, 1.9694)">
            <path d="M0,94.5303926 C31.943515,127.78753 169.216975,189.501414 309.890471,202.275804 M370,204.530393 C698.5,198.031393 778,22.5303926 876.5,1.53039261 C975,-19.4696074 1022.5,183.530393 1123.5,128.530393 C1132.67,123.536393 1140.77,115.786393 1148,105.795393" id="形状结合" stroke="url(#linearGradient-1)" stroke-width="3" stroke-dasharray="6"></path>
            <path d="M362.621,225.614393 C362.754,225.687393 362.901,225.779393 363.015,225.834393 C369.324,228.875393 374.758,225.103393 374.758,225.103393 L362.752,213.687393 L357.154,208.362393 L348.674,200.303393 L372.549,175.204393 C372.549,175.204393 367.405,172.148393 361.256,175.504393 C357.883,177.350393 349.481,186.151393 341.997,193.957393 L337.287,189.477393 C340.267,183.644393 338.673,178.033393 334.314,173.888393 C328.813,168.664393 320.214,168.838393 314.99,174.339393 C309.766,179.840393 309.949,188.598393 315.441,193.822393 C319.489,197.673393 325.226,198.613393 330.077,196.627393 C331.109,197.635393 332.924,199.419393 335.187,201.594393 C333.05,203.896393 331.335,205.755393 330.359,206.823393 C325.41,205.076393 319.699,206.267393 315.848,210.315393 C310.62,215.812393 310.846,224.505393 316.343,229.738393 C321.839,234.966393 330.051,234.282393 335.275,228.791393 C339.421,224.437393 340.3,218.227393 337.029,212.559393 L341.619,207.725393 C347.144,212.853393 353.044,218.148393 357.539,221.793393 C357.539,221.793393 361.455,225.047393 362.621,225.614393 Z M319.292,189.805393 C316.021,186.693393 315.892,181.525393 318.995,178.254393 C322.106,174.988393 327.274,174.854393 330.545,177.966393 C333.812,181.068393 333.941,186.241393 330.834,189.507393 C327.727,192.783393 322.563,192.912393 319.292,189.805393 Z M344.346,198.655393 C345.701,199.940393 345.755,202.093393 344.466,203.444393 C343.181,204.799393 341.032,204.853393 339.677,203.564393 C338.326,202.278393 338.272,200.125393 339.557,198.774393 C340.846,197.419393 342.995,197.365393 344.346,198.655393 Z M331.727,225.420393 C328.615,228.691393 323.443,228.820393 320.176,225.708393 C316.905,222.601393 316.776,217.428393 319.887,214.157393 C322.995,210.895393 328.167,210.762393 331.438,213.869393 C334.7,216.985393 334.83,222.153393 331.727,225.420393 Z" id="形状" fill="#6990F8" fill-rule="nonzero"></path>
        </g>
    </g>
</svg>