<svg width="18" height="18" viewBox="0 0 18 18" fill="none" xmlns="http://www.w3.org/2000/svg">
<path fill-rule="evenodd" clip-rule="evenodd" d="M9.80016 3.16719C9.80016 2.72536 9.44199 2.36719 9.00016 2.36719C8.55834 2.36719 8.20016 2.72536 8.20016 3.16719V8.20039H3.1667C2.72487 8.20039 2.3667 8.55856 2.3667 9.00039C2.3667 9.44221 2.72487 9.80039 3.1667 9.80039H8.20016V14.8338C8.20016 15.2756 8.55834 15.6338 9.00016 15.6338C9.44199 15.6338 9.80016 15.2756 9.80016 14.8338V9.80039H14.8334C15.2752 9.80039 15.6334 9.44221 15.6334 9.00039C15.6334 8.55856 15.2752 8.20039 14.8334 8.20039H9.80016V3.16719Z" fill="#151515"/>
</svg>
