<svg width="18" height="18" viewBox="0 0 18 18" fill="none" xmlns="http://www.w3.org/2000/svg">
<path fill-rule="evenodd" clip-rule="evenodd" d="M13.9456 4.04615C14.258 4.35857 14.244 4.87911 13.9143 5.20879L5.20871 13.9144C4.87902 14.2441 4.35849 14.2581 4.04607 13.9456C3.73365 13.6332 3.74765 13.1127 4.07734 12.783L12.7829 4.07742C13.1126 3.74773 13.6331 3.73373 13.9456 4.04615Z" fill="#151515"/>
<path fill-rule="evenodd" clip-rule="evenodd" d="M4.04564 4.0774C4.35806 3.76498 4.87859 3.77899 5.20828 4.10868L13.9139 12.8143C14.2436 13.1439 14.2576 13.6645 13.9451 13.9769C13.6327 14.2893 13.1122 14.2753 12.7825 13.9456L4.07691 5.24005C3.74722 4.91036 3.73322 4.38982 4.04564 4.0774Z" fill="#151515"/>
</svg>
