<svg width="16" height="16" viewBox="0 0 16 16" fill="none" xmlns="http://www.w3.org/2000/svg">
<path d="M6.4168 8.00703L11.7043 13.2945C12.0934 13.6836 12.0934 14.3195 11.7043 14.7086C11.3152 15.0977 10.6793 15.0977 10.2902 14.7086L4.29648 8.71484C4.19961 8.61797 4.12617 8.50547 4.07773 8.38516C3.99336 8.17422 3.98242 7.93984 4.04648 7.72266C4.05586 7.69141 4.0668 7.66172 4.07773 7.63047C4.12617 7.51016 4.19961 7.39766 4.29648 7.30078L10.2902 1.30547C10.6793 0.916406 11.3152 0.916406 11.7043 1.30547C12.0934 1.69453 12.0934 2.33047 11.7043 2.71953L6.4168 8.00703Z" fill="black" fill-opacity="0.2"/>
</svg>
