<svg width="16" height="16" viewBox="0 0 16 16" fill="none" xmlns="http://www.w3.org/2000/svg">
<path d="M6.41729 8.00703L11.7048 13.2945C12.0938 13.6836 12.0938 14.3195 11.7048 14.7086C11.3157 15.0977 10.6798 15.0977 10.2907 14.7086L4.29697 8.71484C4.2001 8.61797 4.12666 8.50547 4.07822 8.38516C3.99385 8.17422 3.98291 7.93984 4.04697 7.72266C4.05635 7.69141 4.06729 7.66172 4.07822 7.63047C4.12666 7.51016 4.2001 7.39766 4.29697 7.30078L10.2907 1.30547C10.6798 0.916406 11.3157 0.916406 11.7048 1.30547C12.0938 1.69453 12.0938 2.33047 11.7048 2.71953L6.41729 8.00703Z" fill="black"/>
</svg>
