<svg width="106" height="127" viewBox="0 0 106 127" fill="none" xmlns="http://www.w3.org/2000/svg">
<path d="M105 2C60.5397 13.3585 -19.1499 47.0551 8.04746 92.7541M40.3201 113.203C56.9624 118.239 79.1245 121.935 105 124.846" stroke="#558FF8" stroke-width="3" stroke-dasharray="6 6"/>
<path d="M23.4528 121.437C23.4944 121.51 23.5374 121.595 23.5753 121.655C25.6781 124.913 29.3344 124.7 29.3344 124.7L26.9585 115.84L25.8513 111.708L24.1715 105.452L42.6982 100.488C42.6982 100.488 41.1503 97.5593 37.2762 97.3693C35.1498 97.2674 28.6392 98.9991 22.8498 100.526L21.9183 97.0501C25.0102 95.1546 25.8768 92.0436 25.0148 88.8266C23.9243 84.7705 19.8111 82.3697 15.755 83.4602C11.6988 84.5507 9.25647 88.741 10.3426 92.7946C11.1433 95.7828 13.5821 97.8837 16.4475 98.3458C16.644 99.1203 16.9865 100.487 17.4277 102.168C15.753 102.638 14.4061 103.021 13.6367 103.244C11.803 100.99 8.76117 99.9039 5.77297 100.704C1.71585 101.791 -0.687318 105.964 0.398522 110.023C1.48562 114.08 5.56287 116.128 9.61657 115.042C12.8323 114.182 15.0406 111.502 15.1315 107.88L18.6959 106.921C19.8256 110.939 21.0842 115.145 22.1551 118.165C22.1551 118.165 23.0657 120.832 23.4528 121.437ZM13.3221 92.0091C12.6751 89.5947 14.1064 87.1157 16.5165 86.4662C18.9297 85.8214 21.4099 87.2505 22.0569 89.665C22.7042 92.0738 21.2717 94.555 18.8606 95.201C16.4471 95.8514 13.9703 94.4214 13.3221 92.0091ZM22.6031 103.424C22.8725 104.422 22.2762 105.455 21.2768 105.721C20.2784 105.99 19.2478 105.395 18.9797 104.395C18.7125 103.397 19.3088 102.365 20.306 102.097C21.3066 101.829 22.3371 102.424 22.6031 103.424ZM8.91347 112.425C6.49897 113.072 4.01787 111.639 3.37304 109.226C2.72484 106.814 4.15737 104.333 6.57177 103.686C8.98157 103.042 11.464 104.472 12.1122 106.884C12.7536 109.299 11.3223 111.778 8.91347 112.425Z" fill="#558FF8"/>
</svg>
