<svg width="16" height="16" viewBox="0 0 16 16" fill="none" xmlns="http://www.w3.org/2000/svg">
<path d="M9.5832 8.00703L4.2957 13.2945C3.90664 13.6836 3.90664 14.3195 4.2957 14.7086C4.68477 15.0977 5.3207 15.0977 5.70977 14.7086L11.7035 8.71484C11.8004 8.61797 11.8738 8.50547 11.9223 8.38516C12.0066 8.17422 12.0176 7.93984 11.9535 7.72266C11.9441 7.69141 11.9332 7.66172 11.9223 7.63047C11.8738 7.51016 11.8004 7.39766 11.7035 7.30078L5.70977 1.30547C5.3207 0.916406 4.68477 0.916406 4.2957 1.30547C3.90664 1.69453 3.90664 2.33047 4.2957 2.71953L9.5832 8.00703Z" fill="black" fill-opacity="0.88"/>
</svg>
