<svg width="16" height="16" viewBox="0 0 16 16" fill="none" xmlns="http://www.w3.org/2000/svg">
<path d="M9.58272 8.00703L4.29521 13.2945C3.90615 13.6836 3.90615 14.3195 4.29521 14.7086C4.68428 15.0977 5.32022 15.0977 5.70928 14.7086L11.703 8.71484C11.7999 8.61797 11.8733 8.50547 11.9218 8.38516C12.0062 8.17422 12.0171 7.93984 11.953 7.72266C11.9437 7.69141 11.9327 7.66172 11.9218 7.63047C11.8733 7.51016 11.7999 7.39766 11.703 7.30078L5.70928 1.30547C5.32022 0.916406 4.68428 0.916406 4.29521 1.30547C3.90615 1.69453 3.90615 2.33047 4.29521 2.71953L9.58272 8.00703Z" fill="black" fill-opacity="0.2"/>
</svg>
