<svg width="37" height="37" viewBox="0 0 37 37" fill="none" xmlns="http://www.w3.org/2000/svg">
<g id="&#229;&#137;&#170;&#229;&#136;&#128;" clip-path="url(#clip0_2239_654)">
<path id="Vector" d="M14.4736 9.61745C14.3011 8.97794 14.2898 8.3252 14.4397 7.65925C14.5897 6.99329 14.9046 6.39785 15.3845 5.87293C15.7615 5.46049 16.191 5.14758 16.6728 4.9342C17.1547 4.72083 17.65 4.60574 18.1586 4.58893C18.6673 4.57213 19.1711 4.64843 19.6701 4.81784C20.1692 4.98725 20.6249 5.26048 21.0373 5.63754C21.5623 6.11742 21.9261 6.67945 22.1287 7.3236C22.3314 7.96776 22.3811 8.60978 22.278 9.24967C22.2823 9.34537 22.2775 9.43848 22.2635 9.529C22.2496 9.61951 22.2453 9.72458 22.2507 9.8442C22.1993 10.302 22.0158 10.7537 21.7001 11.1993C21.3845 11.645 21.0233 12.0777 20.6166 12.4974C20.21 12.9172 19.809 13.3307 19.4137 13.738C19.0184 14.1452 18.7098 14.5456 18.4877 14.9391C18.3967 15.3148 18.3044 15.7295 18.2108 16.1831C18.1173 16.6368 18.0397 17.1107 17.9779 17.6049C17.9697 17.6892 17.9641 17.7644 17.961 17.8304C17.958 17.8965 17.9519 17.9597 17.9426 18.02C18.4428 17.9497 18.9368 17.8736 19.4246 17.7918C19.9124 17.71 20.4178 17.6214 20.9409 17.5261C21.072 17.5082 21.1936 17.4818 21.3059 17.4468C21.4182 17.4118 21.5399 17.3853 21.671 17.3675C22.0005 17.2328 22.2453 17.078 22.4053 16.9031C22.5652 16.7281 22.7005 16.5362 22.811 16.3275C22.9215 16.1188 23.0286 15.9013 23.1323 15.6749C23.236 15.4485 23.3905 15.2168 23.5956 14.9799C23.8007 14.743 24.0805 14.4997 24.4349 14.2501C24.7892 14.0005 25.2664 13.7483 25.8663 13.4937C26.5929 13.1255 27.369 12.9919 28.1946 13.0927C29.0201 13.1935 29.7516 13.5353 30.389 14.118C30.8015 14.4951 31.1144 14.9246 31.3277 15.4064C31.5411 15.8883 31.6593 16.3864 31.6824 16.9008C31.7054 17.4151 31.6323 17.9218 31.4629 18.4209C31.2934 18.9199 31.0202 19.3756 30.6432 19.7881C30.2318 20.238 29.7553 20.571 29.2136 20.787C28.672 21.0031 28.113 21.1001 27.5366 21.078C26.9271 21.1173 26.3505 21.0892 25.8069 20.9937C25.2632 20.8982 24.737 20.7899 24.2281 20.6689C23.7193 20.5479 23.2261 20.4411 22.7485 20.3487C22.2709 20.2562 21.7996 20.2384 21.3347 20.2952C21.2276 20.312 21.1236 20.3316 21.0227 20.3541C20.9219 20.3766 20.8179 20.3962 20.7107 20.413L20.6749 20.4146C20.5335 20.4689 20.379 20.4998 20.2115 20.5073C19.8309 20.5723 19.4417 20.6467 19.0439 20.7305C18.6461 20.8142 18.2393 20.8954 17.8233 20.974C17.8397 21.6085 17.8664 22.1377 17.9034 22.5615C17.9404 22.9854 17.9337 23.4381 17.8834 23.9198C17.7952 24.8947 17.6155 25.8316 17.3441 26.7308C17.0728 27.6299 16.7613 28.4349 16.4096 29.1459C16.0579 29.8568 15.6824 30.437 15.283 30.8864C14.8836 31.3358 14.5056 31.5925 14.1489 31.6564C14.0043 31.6389 13.8364 31.5715 13.6454 31.4543C13.4544 31.337 13.3774 31.1576 13.4145 30.9162C13.4981 30.3731 13.596 29.7514 13.7085 29.0512C13.8209 28.351 13.9398 27.5935 14.0651 26.7788C14.1904 25.9642 14.3232 25.1162 14.4635 24.2349C14.6038 23.3537 14.7384 22.4786 14.8672 21.6099C14.7008 21.6413 14.5347 21.6787 14.3688 21.7221C14.203 21.7655 14.0369 21.8029 13.8705 21.8343C13.0874 22.0133 12.3026 22.2192 11.5159 22.4523C10.7293 22.6853 9.98453 22.9164 9.28164 23.1457C8.57874 23.375 7.94994 23.586 7.39523 23.7786C6.84052 23.9713 6.41552 24.1162 6.12022 24.2133C5.90705 24.2708 5.69137 24.2056 5.47319 24.0176C5.255 23.8296 5.13377 23.5983 5.10947 23.3237C5.10304 23.1802 5.23452 22.9046 5.50391 22.497C5.77331 22.0894 6.21196 21.6472 6.81986 21.1705C7.42776 20.6938 8.21902 20.2298 9.19365 19.7786C10.1683 19.3274 11.3576 18.9864 12.7616 18.7557L14.0471 18.5542C14.4756 18.4871 14.9103 18.4256 15.3513 18.3699C15.4637 17.6697 15.5689 17.0087 15.6669 16.387C15.7649 15.7654 15.8505 15.2012 15.9237 14.6945C15.9083 14.0839 15.827 13.5392 15.6796 13.0603C15.5323 12.5815 15.3749 12.1451 15.2074 11.751C15.04 11.357 14.8826 10.9895 14.7355 10.6485C14.5884 10.3075 14.5011 9.96382 14.4736 9.61745ZM28.9338 15.7475C28.5339 15.3818 28.0619 15.2142 27.5179 15.2446C26.9739 15.2749 26.5191 15.4901 26.1535 15.8901C25.7878 16.29 25.6142 16.7622 25.6326 17.3068C25.651 17.8513 25.8602 18.3064 26.2602 18.672C26.6601 19.0377 27.1352 19.2081 27.6855 19.1835C28.2357 19.1588 28.6937 18.9465 29.0593 18.5466C29.4249 18.1466 29.5954 17.6715 29.5707 17.1213C29.5461 16.571 29.3338 16.1131 28.9338 15.7475ZM19.6164 7.22945C19.2165 6.86382 18.7474 6.69307 18.2091 6.7172C17.6708 6.74132 17.2188 6.95336 16.8532 7.3533C16.4876 7.75324 16.3139 8.22549 16.3324 8.77003C16.3508 9.31457 16.56 9.76965 16.9599 10.1353C17.3598 10.5009 17.8349 10.6714 18.3852 10.6467C18.9354 10.6221 19.3934 10.4098 19.759 10.0098C19.9418 9.80985 20.0757 9.5881 20.1607 9.34457C20.2457 9.10104 20.2825 8.85367 20.2713 8.60247C20.26 8.35127 20.198 8.10533 20.0854 7.86467C19.9727 7.624 19.8164 7.41226 19.6164 7.22945Z" fill="#008FF7"/>
</g>
<defs>
<clipPath id="clip0_2239_654">
<rect width="25.6935" height="25.6935" fill="white" transform="translate(19.5476 36.8848) rotate(-137.566)"/>
</clipPath>
</defs>
</svg>
