<svg width="26" height="26" viewBox="0 0 26 26" fill="none" xmlns="http://www.w3.org/2000/svg">
<g id="&#229;&#137;&#170;&#229;&#136;&#128;" clip-path="url(#clip0_2247_777)">
<path id="Vector" d="M17.0048 22.4489C17.3604 23.0078 17.8346 23.4565 18.4273 23.7952C19.0199 24.1339 19.6719 24.3032 20.3831 24.3032C20.9419 24.3032 21.4626 24.1974 21.9453 23.9857C22.4279 23.774 22.847 23.4861 23.2026 23.1221C23.5582 22.758 23.8419 22.3346 24.0535 21.852C24.2652 21.3694 24.371 20.8487 24.371 20.2899C24.371 19.5787 24.2017 18.9309 23.863 18.3467C23.5243 17.7625 23.0841 17.2926 22.5422 16.937C22.4744 16.8692 22.4025 16.81 22.3263 16.7592C22.2501 16.7084 22.1696 16.6406 22.085 16.556C21.7124 16.285 21.2552 16.1157 20.7133 16.0479C20.1714 15.9802 19.6084 15.9548 19.0242 15.9717C18.44 15.9887 17.8642 16.0056 17.2969 16.0225C16.7296 16.0395 16.2258 15.9971 15.7856 15.8955C15.4469 15.7093 15.0786 15.4976 14.6806 15.2605C14.2827 15.0234 13.8805 14.761 13.4741 14.4731C13.4064 14.4223 13.3471 14.3757 13.2963 14.3334C13.2455 14.291 13.1947 14.2529 13.1439 14.2191C13.5334 13.8973 13.9228 13.5841 14.3123 13.2793C14.7018 12.9744 15.1082 12.6612 15.5316 12.3394C15.6332 12.2548 15.7348 12.1828 15.8364 12.1235C15.938 12.0642 16.0396 11.9923 16.1412 11.9076C16.4629 11.7552 16.7423 11.679 16.9794 11.679C17.2165 11.679 17.4493 11.7086 17.6779 11.7679C17.9065 11.8272 18.1394 11.8949 18.3764 11.9711C18.6135 12.0473 18.8887 12.0896 19.202 12.0981C19.5153 12.1066 19.8836 12.0642 20.3069 11.9711C20.7303 11.878 21.2383 11.6959 21.831 11.425C22.593 11.1371 23.2153 10.6545 23.6979 9.97714C24.1805 9.29979 24.4218 8.5293 24.4218 7.66567C24.4218 7.10685 24.316 6.58614 24.1043 6.10352C23.8927 5.62091 23.6048 5.19756 23.2407 4.83348C22.8766 4.4694 22.4533 4.18153 21.9707 3.96985C21.4881 3.75818 20.9673 3.65234 20.4085 3.65234C19.7989 3.65234 19.2316 3.77935 18.7067 4.03336C18.1817 4.28736 17.733 4.63451 17.3604 5.07479C16.9201 5.49814 16.5518 5.94265 16.2555 6.40833C15.9591 6.87401 15.684 7.33546 15.43 7.79268C15.1759 8.24989 14.9219 8.68594 14.6679 9.10082C14.4139 9.5157 14.1091 9.87554 13.7535 10.1804C13.6688 10.2481 13.5842 10.3116 13.4995 10.3709C13.4148 10.4301 13.3302 10.4936 13.2455 10.5614L13.2201 10.5868C13.0846 10.6545 12.9576 10.7476 12.8391 10.8662C12.5343 11.1032 12.2168 11.3403 11.8865 11.5774C11.5563 11.8145 11.2219 12.06 10.8832 12.314C10.426 11.8737 10.0535 11.497 9.76558 11.1837C9.4777 10.8704 9.13902 10.5698 8.74954 10.282C7.97059 9.68927 7.15776 9.18972 6.31107 8.78331C5.46437 8.37689 4.66001 8.06362 3.89799 7.84348C3.13596 7.62334 2.45438 7.50903 1.85322 7.50057C1.25207 7.4921 0.807558 7.59794 0.519682 7.81808C0.435012 7.93661 0.37151 8.10595 0.329176 8.32609C0.286841 8.54623 0.367277 8.72404 0.570483 8.85951C1.0277 9.16432 1.55265 9.51146 2.14533 9.90094C2.73802 10.2904 3.37727 10.7138 4.06309 11.171C4.74892 11.6282 5.46437 12.1023 6.20946 12.5934C6.95455 13.0845 7.69118 13.5756 8.41933 14.0667C8.28386 14.1683 8.14416 14.2656 8.00022 14.3588C7.85628 14.4519 7.71658 14.5493 7.58111 14.6509C6.92069 15.1081 6.2391 15.5484 5.53634 15.9717C4.83359 16.3951 4.16046 16.7888 3.51698 17.1529C2.87349 17.517 2.2935 17.8387 1.77702 18.1181C1.26054 18.3975 0.866826 18.6134 0.595884 18.7658C0.409612 18.8844 0.312242 19.0876 0.303775 19.3754C0.295308 19.6633 0.384211 19.9089 0.570483 20.1121C0.672087 20.2137 0.964196 20.3026 1.44681 20.3788C1.92943 20.455 2.55175 20.4296 3.31377 20.3026C4.07579 20.1756 4.95212 19.9046 5.94275 19.4897C6.93339 19.0749 7.98752 18.4271 9.10515 17.5466L10.1212 16.7338C10.4599 16.4628 10.7985 16.1834 11.1372 15.8955C11.7299 16.285 12.2887 16.6533 12.8137 17.0005C13.3386 17.3476 13.8128 17.6651 14.2361 17.953C14.6764 18.3763 15.0235 18.8039 15.2776 19.2357C15.5316 19.6676 15.7475 20.0782 15.9253 20.4677C16.1031 20.8572 16.2682 21.2212 16.4206 21.5599C16.573 21.8986 16.7677 22.1949 17.0048 22.4489ZM22.2374 7.64027C22.2374 8.18215 22.0426 8.6436 21.6532 9.02461C21.2637 9.40563 20.798 9.59613 20.2561 9.59613C19.7142 9.59613 19.2485 9.40563 18.8591 9.02461C18.4696 8.6436 18.2748 8.18215 18.2748 7.64027C18.2748 7.09839 18.4696 6.63271 18.8591 6.24323C19.2485 5.85375 19.7142 5.65901 20.2561 5.65901C20.798 5.65901 21.2637 5.85375 21.6532 6.24323C22.0426 6.63271 22.2374 7.09839 22.2374 7.64027ZM22.2374 20.2645C22.2374 20.8064 22.0469 21.2678 21.6659 21.6488C21.2848 22.0298 20.8234 22.2203 20.2815 22.2203C19.7396 22.2203 19.2739 22.0298 18.8845 21.6488C18.495 21.2678 18.3002 20.8064 18.3002 20.2645C18.3002 19.7226 18.495 19.2569 18.8845 18.8674C19.2739 18.4779 19.7396 18.2832 20.2815 18.2832C20.5525 18.2832 20.8065 18.334 21.0435 18.4356C21.2806 18.5372 21.488 18.6769 21.6659 18.8547C21.8437 19.0325 21.9834 19.2442 22.085 19.4897C22.1866 19.7353 22.2374 19.9935 22.2374 20.2645Z" fill="#FEA324"/>
</g>
<defs>
<clipPath id="clip0_2247_777">
<rect width="25.6935" height="25.6935" fill="white" transform="matrix(0 1 1 0 0.303223 0.304688)"/>
</clipPath>
</defs>
</svg>
